<svg xmlns="http://www.w3.org/2000/svg" xmlns:xlink="http://www.w3.org/1999/xlink" width="500" zoomAndPan="magnify" viewBox="0 0 375 374.999991" height="500" preserveAspectRatio="xMidYMid meet" version="1.0"><defs><g/></defs><g fill="#000000" fill-opacity="1"><g transform="translate(158.431386, 293.329971)"><g><path d="M 66.183594 0 L 132.011719 0 L 132.011719 -4.929688 C 120.394531 -8.800781 117.929688 -19.363281 117.929688 -44.707031 L 117.929688 -240.085938 L 128.140625 -240.085938 C 159.46875 -240.085938 175.3125 -231.285156 188.335938 -203.121094 L 192.5625 -203.828125 L 190.449219 -246.421875 L 7.039062 -246.421875 L 4.929688 -203.828125 L 9.152344 -203.121094 C 22.179688 -231.285156 38.019531 -240.085938 69.351562 -240.085938 L 80.261719 -240.085938 L 80.261719 -44.707031 C 80.261719 -19.363281 77.800781 -8.800781 66.183594 -4.929688 Z M 66.183594 0 "/></g></g></g><g fill="#ed840c" fill-opacity="1"><g transform="translate(7.534602, 281.42749)"><g><path d="M 222.578125 -227.875 C 226.585938 -227.875 229.953125 -227.710938 232.671875 -227.390625 L 232.671875 -224.984375 C 222.742188 -224.503906 214.171875 -222.101562 206.953125 -217.78125 C 198.785156 -212.8125 192.976562 -208.203125 189.53125 -203.953125 C 186.082031 -199.710938 183.359375 -196.269531 181.359375 -193.625 C 179.359375 -190.976562 177.394531 -187.8125 175.46875 -184.125 C 172.425781 -178.519531 169.617188 -172.992188 167.046875 -167.546875 L 102.640625 -26.6875 C 95.265625 -10.820312 91.335938 -0.320312 90.859375 4.8125 L 88.6875 4.8125 L 15.859375 -152.15625 C 13.453125 -156.644531 10.40625 -160.050781 6.71875 -162.375 C 3.039062 -164.695312 -0.722656 -165.859375 -4.578125 -165.859375 L -6.5 -165.859375 L -6.5 -168.265625 L 69.9375 -168.265625 L 69.9375 -165.859375 L 68.015625 -165.859375 C 64.492188 -165.859375 61.890625 -164.773438 60.203125 -162.609375 C 58.523438 -160.453125 57.6875 -158.410156 57.6875 -156.484375 C 57.6875 -154.554688 58.003906 -152.632812 58.640625 -150.71875 L 99.515625 -51.4375 L 149.265625 -167.546875 C 156.796875 -185.328125 165.609375 -198.707031 175.703125 -207.6875 C 190.609375 -221.144531 206.234375 -227.875 222.578125 -227.875 Z M 222.578125 -227.875 "/></g></g></g><g fill="#000000" fill-opacity="1"><g transform="translate(110.321532, 278.521121)"><g><path d="M 1.5 0 L 1.5 -15.390625 L 13.609375 -15.390625 L 13.609375 -12.90625 L 4.71875 -12.90625 L 4.71875 -9.03125 L 12.9375 -9.03125 L 12.9375 -6.546875 L 4.71875 -6.546875 L 4.71875 -2.484375 L 14.046875 -2.484375 L 14.046875 0 Z M 1.5 0 "/></g></g></g><g fill="#000000" fill-opacity="1"><g transform="translate(127.865121, 278.521121)"><g><path d="M 1.5 0 L 1.5 -15.390625 L 4.71875 -15.390625 L 4.71875 -2.484375 L 12.984375 -2.484375 L 12.984375 0 Z M 1.5 0 "/></g></g></g><g fill="#000000" fill-opacity="1"><g transform="translate(144.152228, 278.521121)"><g><path d="M 16.46875 -7.765625 C 16.46875 -6.160156 16.148438 -4.75 15.515625 -3.53125 C 14.878906 -2.320312 13.972656 -1.394531 12.796875 -0.75 C 11.617188 -0.101562 10.238281 0.21875 8.65625 0.21875 C 6.238281 0.21875 4.34375 -0.488281 2.96875 -1.90625 C 1.601562 -3.332031 0.921875 -5.285156 0.921875 -7.765625 C 0.921875 -10.234375 1.601562 -12.160156 2.96875 -13.546875 C 4.34375 -14.929688 6.25 -15.625 8.6875 -15.625 C 11.125 -15.625 13.03125 -14.921875 14.40625 -13.515625 C 15.78125 -12.117188 16.46875 -10.203125 16.46875 -7.765625 Z M 13.171875 -7.765625 C 13.171875 -9.429688 12.773438 -10.734375 11.984375 -11.671875 C 11.203125 -12.617188 10.101562 -13.09375 8.6875 -13.09375 C 7.238281 -13.09375 6.117188 -12.625 5.328125 -11.6875 C 4.546875 -10.75 4.15625 -9.441406 4.15625 -7.765625 C 4.15625 -6.078125 4.554688 -4.742188 5.359375 -3.765625 C 6.171875 -2.796875 7.269531 -2.3125 8.65625 -2.3125 C 10.101562 -2.3125 11.21875 -2.785156 12 -3.734375 C 12.78125 -4.679688 13.171875 -6.023438 13.171875 -7.765625 Z M 13.171875 -7.765625 "/></g></g></g><g fill="#000000" fill-opacity="1"><g transform="translate(164.176028, 278.521121)"><g><path d="M 8.6875 -2.3125 C 10.632812 -2.3125 11.984375 -3.289062 12.734375 -5.25 L 15.546875 -4.1875 C 14.941406 -2.695312 14.054688 -1.585938 12.890625 -0.859375 C 11.722656 -0.140625 10.320312 0.21875 8.6875 0.21875 C 6.207031 0.21875 4.289062 -0.476562 2.9375 -1.875 C 1.59375 -3.28125 0.921875 -5.242188 0.921875 -7.765625 C 0.921875 -10.296875 1.570312 -12.238281 2.875 -13.59375 C 4.175781 -14.945312 6.066406 -15.625 8.546875 -15.625 C 10.347656 -15.625 11.816406 -15.257812 12.953125 -14.53125 C 14.085938 -13.8125 14.882812 -12.75 15.34375 -11.34375 L 12.515625 -10.5625 C 12.273438 -11.332031 11.800781 -11.945312 11.09375 -12.40625 C 10.394531 -12.863281 9.566406 -13.09375 8.609375 -13.09375 C 7.148438 -13.09375 6.039062 -12.640625 5.28125 -11.734375 C 4.53125 -10.828125 4.15625 -9.503906 4.15625 -7.765625 C 4.15625 -5.992188 4.539062 -4.640625 5.3125 -3.703125 C 6.09375 -2.773438 7.21875 -2.3125 8.6875 -2.3125 Z M 8.6875 -2.3125 "/></g></g></g><g fill="#000000" fill-opacity="1"><g transform="translate(182.95426, 278.521121)"><g><path d="M 1.5 0 L 1.5 -15.390625 L 4.71875 -15.390625 L 4.71875 0 Z M 1.5 0 "/></g></g></g><g fill="#000000" fill-opacity="1"><g transform="translate(191.789836, 278.521121)"><g><path d="M 8.4375 -12.90625 L 8.4375 0 L 5.21875 0 L 5.21875 -12.90625 L 0.25 -12.90625 L 0.25 -15.390625 L 13.421875 -15.390625 L 13.421875 -12.90625 Z M 8.4375 -12.90625 "/></g></g></g><g fill="#000000" fill-opacity="1"><g transform="translate(208.076942, 278.521121)"><g><path d="M 9.078125 -6.3125 L 9.078125 0 L 5.859375 0 L 5.859375 -6.3125 L 0.375 -15.390625 L 3.765625 -15.390625 L 7.453125 -8.875 L 11.1875 -15.390625 L 14.5625 -15.390625 Z M 9.078125 -6.3125 "/></g></g></g><g fill="#ed840c" fill-opacity="1"><g transform="translate(283.013144, 278.521121)"><g><path d="M 1.5 0 L 1.5 -15.390625 L 13.609375 -15.390625 L 13.609375 -12.90625 L 4.71875 -12.90625 L 4.71875 -9.03125 L 12.9375 -9.03125 L 12.9375 -6.546875 L 4.71875 -6.546875 L 4.71875 -2.484375 L 14.046875 -2.484375 L 14.046875 0 Z M 1.5 0 "/></g></g></g><g fill="#ed840c" fill-opacity="1"><g transform="translate(300.556732, 278.521121)"><g><path d="M 8.6875 -2.3125 C 10.632812 -2.3125 11.984375 -3.289062 12.734375 -5.25 L 15.546875 -4.1875 C 14.941406 -2.695312 14.054688 -1.585938 12.890625 -0.859375 C 11.722656 -0.140625 10.320312 0.21875 8.6875 0.21875 C 6.207031 0.21875 4.289062 -0.476562 2.9375 -1.875 C 1.59375 -3.28125 0.921875 -5.242188 0.921875 -7.765625 C 0.921875 -10.296875 1.570312 -12.238281 2.875 -13.59375 C 4.175781 -14.945312 6.066406 -15.625 8.546875 -15.625 C 10.347656 -15.625 11.816406 -15.257812 12.953125 -14.53125 C 14.085938 -13.8125 14.882812 -12.75 15.34375 -11.34375 L 12.515625 -10.5625 C 12.273438 -11.332031 11.800781 -11.945312 11.09375 -12.40625 C 10.394531 -12.863281 9.566406 -13.09375 8.609375 -13.09375 C 7.148438 -13.09375 6.039062 -12.640625 5.28125 -11.734375 C 4.53125 -10.828125 4.15625 -9.503906 4.15625 -7.765625 C 4.15625 -5.992188 4.539062 -4.640625 5.3125 -3.703125 C 6.09375 -2.773438 7.21875 -2.3125 8.6875 -2.3125 Z M 8.6875 -2.3125 "/></g></g></g><g fill="#ed840c" fill-opacity="1"><g transform="translate(319.334967, 278.521121)"><g><path d="M 11.421875 0 L 11.421875 -6.59375 L 4.71875 -6.59375 L 4.71875 0 L 1.5 0 L 1.5 -15.390625 L 4.71875 -15.390625 L 4.71875 -9.265625 L 11.421875 -9.265625 L 11.421875 -15.390625 L 14.65625 -15.390625 L 14.65625 0 Z M 11.421875 0 "/></g></g></g><g fill="#ed840c" fill-opacity="1"><g transform="translate(338.113203, 278.521121)"><g><path d="M 1.515625 0 L 1.515625 -3.328125 L 4.671875 -3.328125 L 4.671875 0 Z M 1.515625 0 "/></g></g></g><g fill="#ed840c" fill-opacity="1"><g transform="translate(346.94878, 278.521121)"><g><path d="M 1.5 0 L 1.5 -15.390625 L 4.71875 -15.390625 L 4.71875 0 Z M 1.5 0 "/></g></g></g><g fill="#ed840c" fill-opacity="1"><g transform="translate(355.784356, 278.521121)"><g><path d="M 10.875 0 L 4.15625 -11.859375 C 4.289062 -10.703125 4.359375 -9.773438 4.359375 -9.078125 L 4.359375 0 L 1.5 0 L 1.5 -15.390625 L 5.171875 -15.390625 L 11.984375 -3.4375 C 11.847656 -4.539062 11.78125 -5.546875 11.78125 -6.453125 L 11.78125 -15.390625 L 14.65625 -15.390625 L 14.65625 0 Z M 10.875 0 "/></g></g></g></svg>